<?xml version="1.0" encoding="UTF-8"?><svg id="Layer_3" xmlns="http://www.w3.org/2000/svg" xmlns:xlink="http://www.w3.org/1999/xlink" viewBox="0 0 512 512"><defs><linearGradient id="New_Gradient_Swatch_1" x1="68.95" y1="142.93" x2="350.87" y2="142.93" gradientUnits="userSpaceOnUse"><stop offset="0" stop-color="#bad763"/><stop offset="1" stop-color="#83cfcb"/></linearGradient><linearGradient id="New_Gradient_Swatch_1-2" x1="68.95" y1="205.27" x2="350.87" y2="205.27" xlink:href="#New_Gradient_Swatch_1"/><linearGradient id="linear-gradient" x1="9.33" y1="266.18" x2="341.65" y2="121.68" gradientTransform="translate(6 3)" gradientUnits="userSpaceOnUse"><stop offset="0" stop-color="#bad763"/><stop offset=".49" stop-color="#b1d57b"/><stop offset="1" stop-color="#83cfcb"/></linearGradient><linearGradient id="New_Gradient_Swatch_1-3" x1="68.95" y1="278.61" x2="350.87" y2="278.61" xlink:href="#New_Gradient_Swatch_1"/><linearGradient id="linear-gradient-2" x1="50.49" y1="330.75" x2="348.4" y2="176" gradientTransform="translate(6 3)" gradientUnits="userSpaceOnUse"><stop offset="0" stop-color="#bad763"/><stop offset=".46" stop-color="#aed580"/><stop offset="1" stop-color="#83cfcb"/></linearGradient><linearGradient id="New_Gradient_Swatch_1-4" x1="68.95" y1="352.36" x2="350.87" y2="352.36" xlink:href="#New_Gradient_Swatch_1"/><linearGradient id="linear-gradient-3" x1="54.1" y1="402.55" x2="359.82" y2="241.23" gradientTransform="translate(6 3)" gradientUnits="userSpaceOnUse"><stop offset="0" stop-color="#bad763"/><stop offset="1" stop-color="#83cfcb"/></linearGradient><linearGradient id="linear-gradient-4" x1="211.78" y1="448.34" x2="403.85" y2="254.51" gradientUnits="userSpaceOnUse"><stop offset="0" stop-color="#bad763"/><stop offset=".12" stop-color="#b8d76a"/><stop offset="1" stop-color="#83cfcb"/></linearGradient></defs><rect x="0" y="0" width="512" height="512" rx="60" ry="60" style="fill:#1c1d1d;"/><path d="M209.91,172.53c-137.96,0-137.96-23.13-137.96-26.63,0,0-1.51-32.57,137.96-32.57s137.96,32.57,137.96,32.57c-.93,2.12,0,26.63-137.96,26.63Z" style="fill:none; stroke:url(#New_Gradient_Swatch_1); stroke-width:6px;"/><path d="M209.91,245.5c-137.96,0-137.96-23.13-137.96-26.63,0,0,0-49.41,0-53.27s-1.51,20.7,137.96,20.7,137.96-25.29,137.96-20.7v53.27c-.93,2.12,0,26.63-137.96,26.63Z" style="fill:none; stroke:url(#New_Gradient_Swatch_1-2); stroke-width:6px;"/><ellipse cx="122.79" cy="209.27" rx="6.41" ry="6.45" style="fill:#fff;"/><ellipse cx="147.48" cy="211.72" rx="6.41" ry="6.45" style="fill:#fff;"/><ellipse cx="172.18" cy="214.16" rx="6.41" ry="6.45" style="fill:#fff;"/><ellipse cx="122.79" cy="209.27" rx="6.41" ry="6.45" style="fill:url(#linear-gradient);"/><ellipse cx="147.48" cy="211.72" rx="6.41" ry="6.45" style="fill:url(#linear-gradient);"/><ellipse cx="172.18" cy="214.16" rx="6.41" ry="6.45" style="fill:url(#linear-gradient);"/><path d="M209.91,318.83c-137.96,0-137.96-23.13-137.96-26.63,0,0,0-50.08,0-53.27s-1.51,20.7,137.96,20.7,137.96-25.23,137.96-20.7c0,4.53,0,53.27,0,53.27-.93,2.12,0,26.63-137.96,26.63Z" style="fill:none; stroke:url(#New_Gradient_Swatch_1-3); stroke-width:6px;"/><ellipse cx="122.79" cy="284.04" rx="6.41" ry="6.45" style="fill:#fff;"/><ellipse cx="147.48" cy="286.49" rx="6.41" ry="6.45" style="fill:#fff;"/><ellipse cx="172.18" cy="288.93" rx="6.41" ry="6.45" style="fill:#fff;"/><ellipse cx="122.79" cy="284.04" rx="6.41" ry="6.45" style="fill:url(#linear-gradient-2);"/><ellipse cx="147.48" cy="286.49" rx="6.41" ry="6.45" style="fill:url(#linear-gradient-2);"/><ellipse cx="172.18" cy="288.93" rx="6.41" ry="6.45" style="fill:url(#linear-gradient-2);"/><path d="M209.91,392.58c-137.96,0-137.96-23.13-137.96-26.63,0,0,0-50.08,0-53.27s-1.51,20.7,137.96,20.7,137.96-25.23,137.96-20.7c0,4.53,0,53.27,0,53.27-.93,2.12,0,26.63-137.96,26.63Z" style="fill:none; stroke:url(#New_Gradient_Swatch_1-4); stroke-width:6px;"/><ellipse cx="119.34" cy="358.81" rx="6.41" ry="6.45" style="fill:#fff;"/><ellipse cx="144.04" cy="361.26" rx="6.41" ry="6.45" style="fill:#fff;"/><ellipse cx="168.74" cy="363.7" rx="6.41" ry="6.45" style="fill:#fff;"/><ellipse cx="119.34" cy="358.81" rx="6.41" ry="6.45" style="fill:url(#linear-gradient-3);"/><ellipse cx="144.04" cy="361.26" rx="6.41" ry="6.45" style="fill:url(#linear-gradient-3);"/><ellipse cx="168.74" cy="363.7" rx="6.41" ry="6.45" style="fill:url(#linear-gradient-3);"/><rect x="208.83" y="271.05" width="259.22" height="132.84" style="fill:#1c1d1d;"/><text transform="translate(216.63 395.1)" style="fill:#231f20; font-family:ArchivoBlack-Regular, &apos;Archivo Black&apos;; font-size:158px;"><tspan x="0" y="0">PY</tspan></text><path d="M306.71,291.05c5.23,3.11,9.31,7.37,12.24,12.8,2.93,5.43,4.39,11.51,4.39,18.25v2.05c0,6.74-1.47,12.85-4.39,18.33-2.93,5.48-7.01,9.77-12.24,12.88-5.23,3.11-11.2,4.66-17.89,4.66h-25.89v35.08h-34.68v-108.7h60.58c6.7,0,12.66,1.56,17.89,4.66ZM262.92,334.58h14.28c3.66,0,6.41-.95,8.24-2.84,1.83-1.9,2.75-4.48,2.75-7.74v-1.26c0-3.37-.92-5.98-2.75-7.82-1.83-1.84-4.58-2.77-8.24-2.77h-14.28v22.44Z" style="fill:url(#linear-gradient-4);"/><path d="M408.56,395.1h-34.68v-42.19l-42.84-66.52h39.86l20.72,36.18h.63l20.72-36.18h37.82l-42.22,66.52v42.19Z" style="fill:url(#linear-gradient-4);"/></svg>